<svg width="1206" height="1442" viewBox="0 0 1206 1442" fill="none" xmlns="http://www.w3.org/2000/svg">
<path d="M572.356 204.788C628.58 204.788 674.159 159.128 674.159 102.803C674.159 46.4786 628.58 0.818359 572.356 0.818359C516.132 0.818359 470.553 46.4786 470.553 102.803C470.553 159.128 516.132 204.788 572.356 204.788Z" fill="white" fillOpacity="0.75" />
<path d="M348.435 208.756C384.977 208.756 414.6 179.08 414.6 142.473C414.6 105.866 384.977 76.1898 348.435 76.1898C311.894 76.1898 282.271 105.866 282.271 142.473C282.271 179.08 311.894 208.756 348.435 208.756Z" fill="white" fillOpacity="0.75" />
<path d="M796.271 1441.74C832.813 1441.74 862.436 1412.06 862.436 1375.45C862.436 1338.85 832.813 1309.17 796.271 1309.17C759.729 1309.17 730.106 1338.85 730.106 1375.45C730.106 1412.06 759.729 1441.74 796.271 1441.74Z" fill="white" fillOpacity="0.75" />
<path d="M993.339 1363.48C1049.56 1363.48 1095.14 1317.82 1095.14 1261.49C1095.14 1205.17 1049.56 1159.51 993.339 1159.51C937.115 1159.51 891.536 1205.17 891.536 1261.49C891.536 1317.82 937.115 1363.48 993.339 1363.48Z" fill="white" fillOpacity="0.75" />
<path d="M1139.46 1153.31C1176 1153.31 1205.62 1123.64 1205.62 1087.03C1205.62 1050.42 1176 1020.75 1139.46 1020.75C1102.92 1020.75 1073.29 1050.42 1073.29 1087.03C1073.29 1123.64 1102.92 1153.31 1139.46 1153.31Z" fill="white" fillOpacity="0.75" />
<path d="M-72.6733 974.87C-16.4489 974.87 29.13 929.21 29.13 872.885C29.13 816.561 -16.4489 770.9 -72.6733 770.9C-128.898 770.9 -174.477 816.561 -174.477 872.885C-174.477 929.21 -128.898 974.87 -72.6733 974.87Z" fill="white" fillOpacity="0.75" />
<path d="M5.16005 1153.31C41.7019 1153.31 71.325 1123.64 71.325 1087.03C71.325 1050.42 41.7019 1020.75 5.16005 1020.75C-31.3818 1020.75 -61.0049 1050.42 -61.0049 1087.03C-61.0049 1123.64 -31.3818 1153.31 5.16005 1153.31Z" fill="white" fillOpacity="0.75" />
<path d="M1139.46 497.182C1176 497.182 1205.62 467.506 1205.62 430.899C1205.62 394.292 1176 364.616 1139.46 364.616C1102.92 364.616 1073.29 394.292 1073.29 430.899C1073.29 467.506 1102.92 497.182 1139.46 497.182Z" fill="white" fillOpacity="0.75" />
<path d="M348.435 1441.74C384.977 1441.74 414.6 1412.06 414.6 1375.45C414.6 1338.85 384.977 1309.17 348.435 1309.17C311.894 1309.17 282.271 1338.85 282.271 1375.45C282.271 1412.06 311.894 1441.74 348.435 1441.74Z" fill="white" fillOpacity="0.75" />
<path d="M796.271 208.756C832.813 208.756 862.436 179.08 862.436 142.473C862.436 105.866 832.813 76.1898 796.271 76.1898C759.729 76.1898 730.106 105.866 730.106 142.473C730.106 179.08 759.729 208.756 796.271 208.756Z" fill="white" fillOpacity="0.75" />
</svg>
