<svg width="409" height="428" viewBox="0 0 409 428" fill="none" xmlns="http://www.w3.org/2000/svg">
<path d="M221.092 60.5858C237.737 60.5858 251.231 47.0232 251.231 30.2929C251.231 13.5626 237.737 0 221.092 0C204.448 0 190.954 13.5626 190.954 30.2929C190.954 47.0232 204.448 60.5858 221.092 60.5858Z" fill="#282866"/>
<path d="M154.804 61.7647C165.622 61.7647 174.392 52.9499 174.392 42.0764C174.392 31.2029 165.622 22.3882 154.804 22.3882C143.986 22.3882 135.217 31.2029 135.217 42.0764C135.217 52.9499 143.986 61.7647 154.804 61.7647Z" fill="#282866"/>
<path d="M287.385 427.999C298.202 427.999 306.972 419.185 306.972 408.311C306.972 397.438 298.202 388.623 287.385 388.623C276.567 388.623 267.797 397.438 267.797 408.311C267.797 419.185 276.567 427.999 287.385 427.999Z" fill="#282866"/>
<path d="M345.725 404.754C362.37 404.754 375.863 391.192 375.863 374.462C375.863 357.731 362.37 344.169 345.725 344.169C329.08 344.169 315.587 357.731 315.587 374.462C315.587 391.192 329.08 404.754 345.725 404.754Z" fill="#282866"/>
<path d="M388.977 342.328C399.795 342.328 408.565 333.513 408.565 322.639C408.565 311.766 399.795 302.951 388.977 302.951C378.159 302.951 369.39 311.766 369.39 322.639C369.39 333.513 378.159 342.328 388.977 342.328Z" fill="#282866"/>
<path d="M30.1466 211.013C40.9646 211.013 49.7343 202.198 49.7343 191.325C49.7343 180.451 40.9646 171.637 30.1466 171.637C19.3287 171.637 10.559 180.451 10.559 191.325C10.559 202.198 19.3287 211.013 30.1466 211.013Z" fill="#282866"/>
<path d="M30.1381 289.325C46.783 289.325 60.2763 275.762 60.2763 259.032C60.2763 242.301 46.783 228.739 30.1381 228.739C13.4933 228.739 0 242.301 0 259.032C0 275.762 13.4933 289.325 30.1381 289.325Z" fill="#282866"/>
<path d="M53.1796 342.328C63.9976 342.328 72.7672 333.513 72.7672 322.639C72.7672 311.766 63.9976 302.951 53.1796 302.951C42.3616 302.951 33.5919 311.766 33.5919 322.639C33.5919 333.513 42.3616 342.328 53.1796 342.328Z" fill="#282866"/>
<path d="M388.977 147.436C399.795 147.436 408.565 138.621 408.565 127.748C408.565 116.874 399.795 108.06 388.977 108.06C378.159 108.06 369.39 116.874 369.39 127.748C369.39 138.621 378.159 147.436 388.977 147.436Z" fill="#282866"/>
<path d="M154.804 427.999C165.622 427.999 174.392 419.185 174.392 408.311C174.392 397.438 165.622 388.623 154.804 388.623C143.986 388.623 135.217 397.438 135.217 408.311C135.217 419.185 143.986 427.999 154.804 427.999Z" fill="#282866"/>
<path d="M287.385 61.7647C298.202 61.7647 306.972 52.9499 306.972 42.0764C306.972 31.2029 298.202 22.3882 287.385 22.3882C276.567 22.3882 267.797 31.2029 267.797 42.0764C267.797 52.9499 276.567 61.7647 287.385 61.7647Z" fill="#282866"/>
</svg>
