<svg width="63" height="64" viewBox="0 0 63 64" fill="none" xmlns="http://www.w3.org/2000/svg">
<path fill-rule="evenodd" clip-rule="evenodd" d="M8.1512 33.9843L61.8867 33.9843V29.9291L8.15121 29.9291L34.4689 3.61115L31.6014 0.743652L1.82232 30.523L0.38858 31.9567L1.82233 33.3905L31.6014 63.1695L34.4689 60.302L8.1512 33.9843Z" fill="#282866"/>
<path d="M8.1512 33.9843L8.05561 34.0799L7.82485 33.8491H8.1512V33.9843ZM61.8867 33.9843H62.0219V34.1195H61.8867L61.8867 33.9843ZM61.8867 29.9291L61.8867 29.7939H62.0219V29.9291H61.8867ZM8.15121 29.9291V30.0642H7.82487L8.05562 29.8335L8.15121 29.9291ZM34.4689 3.61115L34.5645 3.51556L34.6601 3.61115L34.5645 3.70673L34.4689 3.61115ZM31.6014 0.743652L31.5058 0.648069L31.6014 0.552485L31.697 0.648068L31.6014 0.743652ZM1.82232 30.523L1.72673 30.4274L1.82232 30.523ZM0.38858 31.9567L0.292995 32.0523L0.197414 31.9567L0.292995 31.8611L0.38858 31.9567ZM1.82233 33.3905L1.72674 33.486L1.82233 33.3905ZM31.6014 63.1695L31.697 63.2651L31.6014 63.3607L31.5058 63.2651L31.6014 63.1695ZM34.4689 60.302L34.5645 60.2064L34.6601 60.302L34.5645 60.3976L34.4689 60.302ZM8.1512 33.8491L61.8867 33.8492L61.8867 34.1195L8.1512 34.1195V33.8491ZM61.7515 33.9843V29.9291H62.0219V33.9843H61.7515ZM61.8867 30.0642L8.15121 30.0642V29.7939L61.8867 29.7939L61.8867 30.0642ZM8.05562 29.8335L34.3733 3.51556L34.5645 3.70673L8.24679 30.0246L8.05562 29.8335ZM34.3733 3.70673L31.5058 0.839236L31.697 0.648068L34.5645 3.51556L34.3733 3.70673ZM31.697 0.839235L1.9179 30.6185L1.72673 30.4274L31.5058 0.648069L31.697 0.839235ZM1.9179 30.6185L0.484165 32.0523L0.292995 31.8611L1.72673 30.4274L1.9179 30.6185ZM0.484165 31.8611L1.91791 33.2949L1.72674 33.486L0.292995 32.0523L0.484165 31.8611ZM1.91791 33.2949L31.697 63.0739L31.5058 63.2651L1.72674 33.486L1.91791 33.2949ZM31.5058 63.0739L34.3733 60.2064L34.5645 60.3976L31.697 63.2651L31.5058 63.0739ZM34.3733 60.3976L8.05561 34.0799L8.24678 33.8887L34.5645 60.2064L34.3733 60.3976Z" fill="white"/>
</svg>
