<svg width="63" height="64" viewBox="0 0 63 64" fill="none" xmlns="http://www.w3.org/2000/svg">
<path fill-rule="evenodd" clip-rule="evenodd" d="M54.8527 33.9843L1.11719 33.9843L1.11719 29.9291L54.8527 29.9291L28.535 3.61115L31.4025 0.743652L61.1816 30.523L62.6153 31.9567L61.1816 33.3905L31.4025 63.1695L28.535 60.302L54.8527 33.9843Z" fill="#282866"/>
<path d="M54.8527 33.9843L54.9483 34.0799L55.1791 33.8491H54.8527V33.9843ZM1.11719 33.9843H0.982012L0.982012 34.1195H1.11719L1.11719 33.9843ZM1.11719 29.9291L1.11719 29.7939H0.982012V29.9291H1.11719ZM54.8527 29.9291V30.0642H55.179L54.9483 29.8335L54.8527 29.9291ZM28.535 3.61115L28.4394 3.51556L28.3438 3.61115L28.4394 3.70673L28.535 3.61115ZM31.4025 0.743652L31.4981 0.648069L31.4025 0.552485L31.3069 0.648068L31.4025 0.743652ZM61.1816 30.523L61.2772 30.4274L61.1816 30.523ZM62.6153 31.9567L62.7109 32.0523L62.8065 31.9567L62.7109 31.8611L62.6153 31.9567ZM61.1816 33.3905L61.2772 33.486L61.1816 33.3905ZM31.4025 63.1695L31.3069 63.2651L31.4025 63.3607L31.4981 63.2651L31.4025 63.1695ZM28.535 60.302L28.4394 60.2064L28.3438 60.302L28.4394 60.3976L28.535 60.302ZM54.8527 33.8491L1.11719 33.8492L1.11719 34.1195L54.8527 34.1195V33.8491ZM1.25236 33.9843L1.25236 29.9291H0.982012L0.982012 33.9843H1.25236ZM1.11719 30.0642L54.8527 30.0642V29.7939L1.11719 29.7939L1.11719 30.0642ZM54.9483 29.8335L28.6306 3.51556L28.4394 3.70673L54.7571 30.0246L54.9483 29.8335ZM28.6306 3.70673L31.4981 0.839236L31.3069 0.648068L28.4394 3.51556L28.6306 3.70673ZM31.3069 0.839235L61.086 30.6185L61.2772 30.4274L31.4981 0.648069L31.3069 0.839235ZM61.086 30.6185L62.5197 32.0523L62.7109 31.8611L61.2772 30.4274L61.086 30.6185ZM62.5197 31.8611L61.086 33.2949L61.2772 33.486L62.7109 32.0523L62.5197 31.8611ZM61.086 33.2949L31.3069 63.0739L31.4981 63.2651L61.2772 33.486L61.086 33.2949ZM31.4981 63.0739L28.6306 60.2064L28.4394 60.3976L31.3069 63.2651L31.4981 63.0739ZM28.6306 60.3976L54.9483 34.0799L54.7571 33.8887L28.4394 60.2064L28.6306 60.3976Z" fill="white"/>
</svg>
