<svg width="141" height="21" viewBox="0 0 141 21" fill="none" xmlns="http://www.w3.org/2000/svg">
<path d="M0.180371 11.8901V1.18743C0.180371 1.08154 0.264932 0.996826 0.370632 0.996826H3.56806C3.67376 0.996826 3.75832 1.08154 3.75832 1.18743V11.7525C3.75832 15.7233 5.54729 17.4334 8.66016 17.4334C11.773 17.4334 13.5329 15.7233 13.5329 11.7525V1.18743C13.5329 1.08154 13.6175 0.996826 13.7232 0.996826H16.8651C16.9708 0.996826 17.0554 1.08154 17.0554 1.18743V11.8901C17.0554 17.5181 13.8897 20.5783 8.63109 20.5783C3.37251 20.5783 0.177734 17.5181 0.177734 11.8901H0.180371Z" fill="#FFFFFF"/>
<path d="M42.2018 1.18763V20.1126C42.2018 20.2185 42.1172 20.3032 42.0115 20.3032H39.3479C39.2898 20.3032 39.2369 20.2767 39.1999 20.2317L28.6299 7.22858V20.1099C28.6299 20.2158 28.5454 20.3005 28.4397 20.3005H25.2713C25.1656 20.3005 25.0811 20.2158 25.0811 20.1099V1.18498C25.0811 1.0791 25.1656 0.994385 25.2713 0.994385H27.935C27.9931 0.994385 28.0459 1.02086 28.0829 1.06586L38.6529 14.069V1.18763C38.6529 1.08174 38.7375 0.997033 38.8432 0.997033H42.0115C42.1172 0.997033 42.2018 1.08174 42.2018 1.18763Z" fill="#FFFFFF"/>
<path d="M54.3571 1.18743V20.1124C54.3571 20.2183 54.2725 20.303 54.1668 20.303H50.9694C50.8637 20.303 50.7792 20.2183 50.7792 20.1124V2.41044C50.7792 2.33896 50.7395 2.27278 50.6735 2.23837L48.5938 1.08683C48.5489 1.06301 48.5647 0.996826 48.6149 0.996826H54.1668C54.2725 0.996826 54.3571 1.08154 54.3571 1.18743Z" fill="#FFFFFF"/>
<path d="M84.9863 10.6487C84.9863 4.93866 89.3914 0.718994 95.3661 0.718994C101.341 0.718994 105.746 4.91219 105.746 10.6487C105.746 16.3852 101.341 20.5784 95.3661 20.5784C89.3914 20.5784 84.9863 16.3588 84.9863 10.6487ZM102.139 10.6487C102.139 6.70435 99.2479 3.86389 95.3661 3.86389C91.4842 3.86389 88.5933 6.70435 88.5933 10.6487C88.5933 14.5931 91.4842 17.4335 95.3661 17.4335C99.2479 17.4335 102.139 14.5931 102.139 10.6487Z" fill="#FFFFFF"/>
<path d="M130.825 20.1124L130.799 7.50633L124.523 18.0052C124.489 18.0634 124.425 18.0978 124.359 18.0978H122.977C122.911 18.0978 122.848 18.0634 122.813 18.0052L116.537 7.67046V20.1124C116.537 20.2183 116.453 20.303 116.347 20.303H113.316C113.211 20.303 113.126 20.2183 113.126 20.1124V1.18743C113.126 1.08154 113.211 0.996826 113.316 0.996826H115.961C116.027 0.996826 116.091 1.03124 116.125 1.08948L123.64 13.6558C123.677 13.7193 123.767 13.7167 123.804 13.6558L131.185 1.09213C131.219 1.03389 131.283 0.996826 131.349 0.996826H133.994C134.099 0.996826 134.184 1.08154 134.184 1.18743L134.21 20.1124C134.21 20.2183 134.126 20.303 134.02 20.303H131.016C130.91 20.303 130.825 20.2183 130.825 20.1124Z" fill="#FFFFFF"/>
<path d="M124.891 17.3672L123.752 19.3182C123.715 19.3817 123.625 19.3817 123.588 19.3182L122.449 17.3672" fill="#FFFFFF"/>
<path d="M77.5127 15.276L79.5527 17.2217C79.6267 17.2932 79.6347 17.4123 79.566 17.4891C77.7743 19.4957 75.1292 20.5757 72.0322 20.5757C66.1394 20.5757 61.7344 16.409 61.7344 10.646C61.7344 4.88303 66.1394 0.716309 72.0586 0.716309C75.1266 0.716309 77.7744 1.79637 79.5633 3.80296C79.632 3.87973 79.6267 3.99886 79.5501 4.07033L77.3727 6.11928L75.8585 7.54878C75.8242 7.58319 75.7661 7.54878 75.7793 7.50113L76.4346 5.341C76.4452 5.30129 76.4346 5.25893 76.4002 5.23511C75.1926 4.31388 73.7921 3.8612 72.2225 3.8612C68.2296 3.8612 65.3387 6.67519 65.3387 10.646C65.3387 14.6168 68.2323 17.4308 72.2225 17.4308C74.17 17.4308 75.8585 16.732 77.2406 15.2839C77.3145 15.2072 77.4335 15.2019 77.5101 15.276H77.5127Z" fill="#FFFFFF"/>
<path d="M138.756 1.00757C137.813 1.00757 137.022 1.73555 137.022 2.70443C137.022 3.67331 137.813 4.4013 138.756 4.4013C139.699 4.4013 140.495 3.67596 140.495 2.70443C140.495 1.7329 139.702 1.00757 138.756 1.00757ZM138.756 4.06245C138.016 4.06245 137.377 3.46683 137.377 2.70179C137.377 1.93674 138.016 1.34112 138.756 1.34112C139.496 1.34112 140.135 1.93674 140.135 2.70179C140.135 3.46683 139.501 4.06245 138.756 4.06245ZM139.454 2.42912C139.454 2.09557 139.2 1.88115 138.827 1.88115H138.18V3.42712H138.513V2.96386H138.769L139.089 3.42712H139.509L139.136 2.90827C139.332 2.82621 139.451 2.65943 139.451 2.42912H139.454ZM138.825 2.66472H138.515V2.19617H138.825C139.004 2.19617 139.11 2.29147 139.11 2.42647C139.11 2.56942 139.004 2.66472 138.825 2.66472Z" fill="#FFFFFF"/>
</svg>
