<svg width="51" height="54" viewBox="0 0 51 54" fill="none" xmlns="http://www.w3.org/2000/svg">
<path d="M27.6838 7.93164C29.7474 7.93164 31.4203 6.25577 31.4203 4.18848C31.4203 2.12118 29.7474 0.445312 27.6838 0.445312C25.6202 0.445312 23.9473 2.12118 23.9473 4.18848C23.9473 6.25577 25.6202 7.93164 27.6838 7.93164Z" fill="#FFFFFF"/>
<path d="M19.4607 8.07457C20.8019 8.07457 21.8891 6.98537 21.8891 5.64178C21.8891 4.29818 20.8019 3.20898 19.4607 3.20898C18.1195 3.20898 17.0322 4.29818 17.0322 5.64178C17.0322 6.98537 18.1195 8.07457 19.4607 8.07457Z" fill="#FFFFFF"/>
<path d="M35.905 53.3314C37.2462 53.3314 38.3335 52.2422 38.3335 50.8986C38.3335 49.555 37.2462 48.4658 35.905 48.4658C34.5638 48.4658 33.4766 49.555 33.4766 50.8986C33.4766 52.2422 34.5638 53.3314 35.905 53.3314Z" fill="#FFFFFF"/>
<path d="M43.1349 50.4592C45.1985 50.4592 46.8714 48.7834 46.8714 46.7161C46.8714 44.6488 45.1985 42.9729 43.1349 42.9729C41.0713 42.9729 39.3984 44.6488 39.3984 46.7161C39.3984 48.7834 41.0713 50.4592 43.1349 50.4592Z" fill="#FFFFFF"/>
<path d="M48.5017 42.7425C49.8429 42.7425 50.9302 41.6533 50.9302 40.3097C50.9302 38.9662 49.8429 37.877 48.5017 37.877C47.1605 37.877 46.0732 38.9662 46.0732 40.3097C46.0732 41.6533 47.1605 42.7425 48.5017 42.7425Z" fill="#FFFFFF"/>
<path d="M4.00951 26.5204C5.35071 26.5204 6.43797 25.4312 6.43797 24.0876C6.43797 22.744 5.35071 21.6548 4.00951 21.6548C2.66831 21.6548 1.58105 22.744 1.58105 24.0876C1.58105 25.4312 2.66831 26.5204 4.00951 26.5204Z" fill="#FFFFFF"/>
<path d="M4.00993 36.196C6.07354 36.196 7.74643 34.5202 7.74643 32.4529C7.74643 30.3856 6.07354 28.7097 4.00993 28.7097C1.94632 28.7097 0.273438 30.3856 0.273438 32.4529C0.273438 34.5202 1.94632 36.196 4.00993 36.196Z" fill="#FFFFFF"/>
<path d="M6.86693 42.7425C8.20813 42.7425 9.29539 41.6533 9.29539 40.3097C9.29539 38.9662 8.20813 37.877 6.86693 37.877C5.52573 37.877 4.43848 38.9662 4.43848 40.3097C4.43848 41.6533 5.52573 42.7425 6.86693 42.7425Z" fill="#FFFFFF"/>
<path d="M48.5017 18.6634C49.8429 18.6634 50.9302 17.5742 50.9302 16.2306C50.9302 14.8871 49.8429 13.7979 48.5017 13.7979C47.1605 13.7979 46.0732 14.8871 46.0732 16.2306C46.0732 17.5742 47.1605 18.6634 48.5017 18.6634Z" fill="#FFFFFF"/>
<path d="M19.4607 53.3314C20.8019 53.3314 21.8891 52.2422 21.8891 50.8986C21.8891 49.555 20.8019 48.4658 19.4607 48.4658C18.1195 48.4658 17.0322 49.555 17.0322 50.8986C17.0322 52.2422 18.1195 53.3314 19.4607 53.3314Z" fill="#FFFFFF"/>
<path d="M35.905 8.07457C37.2462 8.07457 38.3335 6.98537 38.3335 5.64178C38.3335 4.29818 37.2462 3.20898 35.905 3.20898C34.5638 3.20898 33.4766 4.29818 33.4766 5.64178C33.4766 6.98537 34.5638 8.07457 35.905 8.07457Z" fill="#FFFFFF"/>
</svg>
